<?xml version="1.0" encoding="UTF-8" standalone="no"?>
<!--
  - This file is part of Doodle Android.
  -
  - Doodle Android is free software: you can redistribute it and/or modify
  - it under the terms of the GNU General Public License as published by
  - the Free Software Foundation, either version 3 of the License, or
  - (at your option) any later version.
  -
  - Doodle Android is distributed in the hope that it will be useful,
  - but WITHOUT ANY WARRANTY; without even the implied warranty of
  - MERCHANTABILITY or FITNESS FOR A PARTICULAR PURPOSE.  See the
  - GNU General Public License for more details.
  -
  - You should have received a copy of the GNU General Public License
  - along with Doodle Android. If not, see <http://www.gnu.org/licenses/>.
  -
  - Copyright (c) 2019-2022 by Patrick Zedler
  -->

<svg
   id="svg8"
   version="1.1"
   viewBox="0 0 737518.06 1306335.2"
   width="737518.06"
   height="1306335.2"
   xmlns="http://www.w3.org/2000/svg"
   xmlns:svg="http://www.w3.org/2000/svg">
  <defs
     id="defs1" />
  <path
     id="circle"
     fill="#634b67"
     d="m 178138.83,-873893.44 c -21.58,-0.1 -37.3,14.3 -61.32,14.56 -27.62,0.3 -44.72,-18.01 -71.67,-12 -26.8,6 -34.36,29.82 -59.33,41.27 -25.1,11.52 -48.17,1.74 -70.34,18.2 -22.05,16.37 -19.26,41.21 -37.42,61.82 -18.24,20.72 -43.3,21.19 -56.86,45.24 -13.49,23.91 -0.83,45.49 -9.04,71.7 -8.23,26.34 -30.95,36.96 -33.54,64.45 -2.58,27.33 17.74,41.89 20.91,69.17 3.2,27.42 -13.23,46.35 -4.43,72.52 8.76,26.03 33.25,31.06 47.24,54.7 14.07,23.75 6.76,47.72 25.45,68.04 18.58,20.22 43,14.86 65.4,30.75 22.5,15.99 25.59,40.86 50.93,51.82 25.2,10.91 45.33,-3.92 72.24,1.5 27.08,5.43 40,26.92 67.6,26.63 27.47,-0.3 39.82,-22.03 66.62,-28.05 26.94,-6.03 47.48,8.34 72.6,-3.16 24.96,-11.43 27.4,-36.31 49.43,-52.7 22.16,-16.47 46.77,-11.7 65.03,-32.43 18.17,-20.59 10.28,-44.3 23.75,-68.24 13.54,-24.06 37.95,-29.72 46.21,-56.07 8.21,-26.2 -8.64,-44.68 -6.08,-72.01 2.58,-27.49 22.6,-42.59 19.42,-70.01 -3.16,-27.28 -26.07,-37.3 -34.84,-63.31 -8.8,-26.17 3.31,-48.1 -10.74,-71.88 -13.98,-23.63 -38.97,-23.46 -57.57,-43.66 -18.7,-20.31 -16.55,-45.3 -39.04,-61.29 -22.4,-15.9 -45.16,-5.58 -70.37,-16.47 -25.35,-10.95 -33.52,-34.64 -60.58,-40.1 a 49.2,49.2 0 0 0 -9.66,-1 z" />
</svg>
