<?xml version="1.0" encoding="UTF-8" standalone="no"?>
<!--
  - This file is part of Doodle Android.
  -
  - Doodle Android is free software: you can redistribute it and/or modify
  - it under the terms of the GNU General Public License as published by
  - the Free Software Foundation, either version 3 of the License, or
  - (at your option) any later version.
  -
  - Doodle Android is distributed in the hope that it will be useful,
  - but WITHOUT ANY WARRANTY; without even the implied warranty of
  - MERCHANTABILITY or FITNESS FOR A PARTICULAR PURPOSE.  See the
  - GNU General Public License for more details.
  -
  - You should have received a copy of the GNU General Public License
  - along with Doodle Android. If not, see <http://www.gnu.org/licenses/>.
  -
  - Copyright (c) 2019-2022 by Patrick Zedler
  -->

<svg
   id="svg8"
   version="1.1"
   viewBox="0 0 1426329.1 2108606"
   width="1426329.1"
   height="2108606"
   xmlns="http://www.w3.org/2000/svg"
   xmlns:svg="http://www.w3.org/2000/svg">
  <defs
     id="defs1" />
  <rect
     id="bg"
     width="1080"
     height="1920"
     x="82312.516"
     y="-1895042.8"
     fill="#000000"
     fill-opacity="1" />
  <path
     id="circle"
     fill="none"
     stroke="#804c43"
     stroke-opacity="1"
     stroke-width="5"
     d="m 82970.717,-1894906 c -43.84,-0.1 -40.87,31.2 -83.46,41.6 -42.6,10.4 -54.4,-18.7 -93.27,1.6 -38.86,20.3 -21.67,46.6 -54.54,75.6 -32.88,29 -56.9,8.7 -81.89,44.7 -24.98,36.1 2.5,51.4 -13.12,92.4 -15.63,41 -46.36,34.1 -51.74,77.6 -5.37,43.5 26.1,44.4 31.3,87.9 5.2,43.5 -25.2,51.7 -9.73,92.8 15.46,41 43.72,27.1 68.55,63.2 24.83,36.2 1.74,57.6 34.5,86.7 32.75,29.1 51.32,3.7 90.1,24.2 38.78,20.4 28.27,50.1 70.82,60.7 42.55,10.6 47.17,-20.6 91,-20.5 43.85,0.1 48.34,31.2 90.93,20.9 42.6,-10.5 32.21,-40.2 71.07,-60.5 38.87,-20.3 57.32,5.2 90.2,-23.8 32.88,-29 9.87,-50.5 34.85,-86.5 24.98,-36 53.17,-22 68.8,-63 15.63,-41 -14.73,-49.3 -9.36,-92.8 5.38,-43.5 36.86,-44.2 31.66,-87.8 -5.2,-43.5 -35.96,-36.8 -51.42,-77.8 -15.46,-41 12.08,-56.3 -12.75,-92.4 -24.83,-36.1 -48.94,-15.9 -81.7,-45 -32.76,-29.2 -15.46,-55.5 -54.24,-75.9 -38.78,-20.5 -50.71,8.7 -93.26,-1.9 -42.55,-10.6 -39.45,-41.9 -83.3,-42 z"
     opacity="1" />
  <path
     id="oval"
     fill="none"
     stroke="#4a4a4a"
     stroke-opacity="1"
     stroke-width="5"
     d="m 82637.197,-1894052.9 a 716.05,467.77 31.44 0 0 -351.47,172.8 716.05,467.77 31.44 0 0 366.9,772.6 716.05,467.77 31.44 0 0 854.93,-25.6 716.05,467.77 31.44 0 0 -366.92,-772.6 716.05,467.77 31.44 0 0 -503.44,-147.3 z"
     opacity="1" />
</svg>
