<?xml version="1.0" encoding="UTF-8" standalone="no"?>
<!--
  - This file is part of Doodle Android.
  -
  - Doodle Android is free software: you can redistribute it and/or modify
  - it under the terms of the GNU General Public License as published by
  - the Free Software Foundation, either version 3 of the License, or
  - (at your option) any later version.
  -
  - Doodle Android is distributed in the hope that it will be useful,
  - but WITHOUT ANY WARRANTY; without even the implied warranty of
  - MERCHANTABILITY or FITNESS FOR A PARTICULAR PURPOSE.  See the
  - GNU General Public License for more details.
  -
  - You should have received a copy of the GNU General Public License
  - along with Doodle Android. If not, see <http://www.gnu.org/licenses/>.
  -
  - Copyright (c) 2019-2022 by Patrick Zedler
  -->

<svg
   id="svg8"
   version="1.1"
   viewBox="0 0 813353.12 1434878.6"
   width="813353.12"
   height="1434878.6"
   xmlns="http://www.w3.org/2000/svg"
   xmlns:svg="http://www.w3.org/2000/svg">
  <defs
     id="defs1" />
  <path
     id="quad"
     fill="#695b5e"
     d="m -605740.01,55380.736 c -94.33,3.4 -172.65,77.77 -178.93,174 -1.59,29.72 4,59.4 16.3,87.54 12.31,28.14 16.7,59.36 14.67,90.95 a 206,206 0 0 1 -27.06,88.52 c -15.35,26.5 -24.6,54.98 -26.87,84.43 -6.69,102.64 71.08,191.29 173.71,198 31.41,2.03 61.89,-3.95 90.27,-16.28 28.38,-12.33 59.9,-17.77 91.39,-15.85 31.59,2.08 62.24,11.53 88.6,27.5 26.38,15.97 55.89,25.9 87.37,27.99 102.65,6.71 191.3,-71.07 198,-173.7 1.98,-30.3 -3.52,-59.78 -15.5,-87.64 -11.99,-27.85 -17.44,-59.37 -15.5,-90.87 a 203,203 0 0 1 27,-88.42 185.8,185.8 0 0 0 26.97,-84.53 c 6.69,-102.65 -71.07,-191.28 -173.71,-198 a 185.73,185.73 0 0 0 -91,17.3 203,203 0 0 1 -90.71,15.1 c -31.49,-2.21 -62.27,-11.51 -88.67,-27.51 -26.39,-16.03 -55.7,-26.2 -87.26,-28.27 v 0.01 c -6.42,-0.42 -12.78,-0.5 -19.07,-0.28 z" />
</svg>
